# xmcd
#
# Track frame offsets: 
#        150
#        14580
#        28341
#        49324
#        77236
#        102179
#        114562
#        132658
#        143210
#        179414
#        189179
#        204455
#        217146
#        234647
#        243870
#        256473
#        280939
#        292800
#
# Disc length: 4089 seconds
#
# Revision: 3
# Processed by: cddbd v1.5.2PL0 Copyright (c) Steve Scherf et al.
# Submitted via: ExactAudioCopy v0.99pb3
#
DISCID=150ff712
DTITLE=Various Artist - She's Got Soul CD2
DYEAR=2005
DGENRE=Soul
TTITLE0=Betty Harris - Cry To Me
TTITLE1=Gladys Knight and The Pips - Giving Up
TTITLE2=Martha Reeves and The Vandellas - Heatwave
TTITLE3=Nina Simone - Ain't Got No, I Got Life
TTITLE4=Rose Royce - Love Don't Live Here Anymore
TTITLE5=Dixie Cups - Chapel Of Love
TTITLE6=Ike And Tina Turner - He Belongs To Me
TTITLE7=Chaka Khan - I Know You I Live You
TTITLE8=Cissy And Whitney Houston - Think It Over
TTITLE9=Dinah Washington - September In The Rain
TTITLE10=Mary Wells - My Guy
TTITLE11=Carla Thomas - B.A.B.Y.
TTITLE12=Linda Clifford - Runaway Love
TTITLE13=Irma Thomas - It's Raining
TTITLE14=Liz Lands - One Man's Poison
TTITLE15=Bobby Womack and Patti Labelle - Love Has Finally Come At Last
TTITLE16=Bessie Banks - Go Now
TTITLE17=Ann Sexton - You're Gonna Miss Me
EXTD=
EXTT0=
EXTT1=
EXTT2=
EXTT3=
EXTT4=
EXTT5=
EXTT6=
EXTT7=
EXTT8=
EXTT9=
EXTT10=
EXTT11=
EXTT12=
EXTT13=
EXTT14=
EXTT15=
EXTT16=
EXTT17=
PLAYORDER=
